<svg width="190" height="50" viewBox="0 0 190 50" fill="none" xmlns="http://www.w3.org/2000/svg">
<path d="M60.1669 33H55.6328L61.522 15.5455H67.1385L73.0277 33H68.4936L64.3942 19.9432H64.2578L60.1669 33ZM59.5618 26.1307H69.0391V29.3352H59.5618V26.1307ZM83.353 27.3494V19.9091H87.5121V33H83.5405V30.5625H83.4041C83.1143 31.3636 82.62 32 81.9212 32.4716C81.228 32.9375 80.3899 33.1705 79.407 33.1705C78.5149 33.1705 77.7308 32.9659 77.0547 32.5568C76.3786 32.1477 75.853 31.5767 75.478 30.8438C75.103 30.1051 74.9126 29.2415 74.907 28.2528V19.9091H79.0746V27.4347C79.0803 28.1449 79.2678 28.7045 79.6371 29.1136C80.0064 29.5227 80.5092 29.7273 81.1456 29.7273C81.5604 29.7273 81.9325 29.6364 82.2621 29.4545C82.5973 29.267 82.8615 28.9972 83.0547 28.6449C83.2536 28.2869 83.353 27.8551 83.353 27.3494ZM97.554 19.9091V22.9773H89.2955V19.9091H97.554ZM91.0256 16.7727H95.1932V28.8835C95.1932 29.1392 95.233 29.3466 95.3125 29.5057C95.3977 29.6591 95.5199 29.7699 95.679 29.8381C95.8381 29.9006 96.0284 29.9318 96.25 29.9318C96.4091 29.9318 96.5767 29.9176 96.7528 29.8892C96.9347 29.8551 97.071 29.8267 97.1619 29.804L97.7926 32.8125C97.5938 32.8693 97.3125 32.9403 96.9489 33.0256C96.5909 33.1108 96.1619 33.1648 95.6619 33.1875C94.6847 33.233 93.8466 33.1193 93.1477 32.8466C92.4545 32.5682 91.9233 32.1364 91.554 31.5511C91.1903 30.9659 91.0142 30.2301 91.0256 29.3438V16.7727ZM104.129 25.5341V33H99.9616V15.5455H103.993V22.3125H104.138C104.433 21.5057 104.916 20.875 105.587 20.4205C106.263 19.9659 107.089 19.7386 108.067 19.7386C108.987 19.7386 109.788 19.9432 110.47 20.3523C111.152 20.7557 111.68 21.3267 112.055 22.0653C112.436 22.804 112.624 23.6676 112.618 24.6562V33H108.45V25.4744C108.456 24.7472 108.274 24.179 107.905 23.7699C107.536 23.3608 107.016 23.1562 106.345 23.1562C105.908 23.1562 105.521 23.2528 105.186 23.446C104.857 23.6335 104.598 23.9034 104.411 24.2557C104.229 24.608 104.135 25.0341 104.129 25.5341ZM115.219 33V15.5455H119.387V22.1506H119.472C119.643 21.7528 119.884 21.3693 120.197 21C120.515 20.6307 120.918 20.3295 121.407 20.0966C121.901 19.858 122.492 19.7386 123.18 19.7386C124.089 19.7386 124.938 19.9773 125.728 20.4545C126.523 20.9318 127.165 21.6676 127.654 22.6619C128.143 23.6562 128.387 24.9233 128.387 26.4631C128.387 27.946 128.151 29.1875 127.68 30.1875C127.214 31.1875 126.583 31.9375 125.788 32.4375C124.998 32.9375 124.12 33.1875 123.154 33.1875C122.495 33.1875 121.924 33.0795 121.441 32.8636C120.958 32.6477 120.552 32.3636 120.222 32.0114C119.898 31.6591 119.648 31.2812 119.472 30.8778H119.344V33H115.219ZM119.302 26.4545C119.302 27.1591 119.396 27.7727 119.583 28.2955C119.776 28.8182 120.052 29.2244 120.41 29.5142C120.773 29.7983 121.208 29.9403 121.714 29.9403C122.225 29.9403 122.66 29.7983 123.018 29.5142C123.376 29.2244 123.646 28.8182 123.827 28.2955C124.015 27.7727 124.109 27.1591 124.109 26.4545C124.109 25.75 124.015 25.1392 123.827 24.6222C123.646 24.1051 123.376 23.7045 123.018 23.4205C122.665 23.1364 122.231 22.9943 121.714 22.9943C121.202 22.9943 120.768 23.1335 120.41 23.4119C120.052 23.6903 119.776 24.0881 119.583 24.6051C119.396 25.1222 119.302 25.7386 119.302 26.4545ZM136.682 33.2472C135.307 33.2472 134.125 32.9659 133.136 32.4034C132.153 31.8352 131.395 31.0455 130.861 30.0341C130.332 29.017 130.068 27.8381 130.068 26.4972C130.068 25.1506 130.332 23.9716 130.861 22.9602C131.395 21.9432 132.153 21.1534 133.136 20.5909C134.125 20.0227 135.307 19.7386 136.682 19.7386C138.057 19.7386 139.236 20.0227 140.219 20.5909C141.207 21.1534 141.966 21.9432 142.494 22.9602C143.028 23.9716 143.295 25.1506 143.295 26.4972C143.295 27.8381 143.028 29.017 142.494 30.0341C141.966 31.0455 141.207 31.8352 140.219 32.4034C139.236 32.9659 138.057 33.2472 136.682 33.2472ZM136.707 30.1023C137.207 30.1023 137.631 29.9489 137.977 29.642C138.324 29.3352 138.588 28.9091 138.77 28.3636C138.957 27.8182 139.051 27.1875 139.051 26.4716C139.051 25.7443 138.957 25.108 138.77 24.5625C138.588 24.017 138.324 23.5909 137.977 23.2841C137.631 22.9773 137.207 22.8239 136.707 22.8239C136.19 22.8239 135.753 22.9773 135.395 23.2841C135.043 23.5909 134.773 24.017 134.585 24.5625C134.403 25.108 134.312 25.7443 134.312 26.4716C134.312 27.1875 134.403 27.8182 134.585 28.3636C134.773 28.9091 135.043 29.3352 135.395 29.642C135.753 29.9489 136.19 30.1023 136.707 30.1023ZM153.876 27.3494V19.9091H158.036V33H154.064V30.5625H153.928C153.638 31.3636 153.143 32 152.445 32.4716C151.751 32.9375 150.913 33.1705 149.93 33.1705C149.038 33.1705 148.254 32.9659 147.578 32.5568C146.902 32.1477 146.376 31.5767 146.001 30.8438C145.626 30.1051 145.436 29.2415 145.43 28.2528V19.9091H149.598V27.4347C149.604 28.1449 149.791 28.7045 150.161 29.1136C150.53 29.5227 151.033 29.7273 151.669 29.7273C152.084 29.7273 152.456 29.6364 152.786 29.4545C153.121 29.267 153.385 28.9972 153.578 28.6449C153.777 28.2869 153.876 27.8551 153.876 27.3494ZM164.856 25.5341V33H160.688V19.9091H164.651V22.3125H164.796C165.086 21.5114 165.58 20.8835 166.279 20.429C166.978 19.9688 167.81 19.7386 168.776 19.7386C169.697 19.7386 170.495 19.946 171.171 20.3608C171.853 20.7699 172.381 21.3437 172.756 22.0824C173.137 22.8153 173.325 23.6733 173.319 24.6562V33H169.151V25.4744C169.157 24.7472 168.972 24.179 168.597 23.7699C168.228 23.3608 167.714 23.1562 167.055 23.1562C166.617 23.1562 166.231 23.2528 165.896 23.446C165.566 23.6335 165.31 23.9034 165.129 24.2557C164.952 24.608 164.862 25.0341 164.856 25.5341ZM180.68 33.1875C179.714 33.1875 178.837 32.9375 178.047 32.4375C177.257 31.9375 176.626 31.1875 176.155 30.1875C175.683 29.1875 175.447 27.946 175.447 26.4631C175.447 24.9233 175.692 23.6562 176.18 22.6619C176.669 21.6676 177.308 20.9318 178.098 20.4545C178.893 19.9773 179.749 19.7386 180.663 19.7386C181.351 19.7386 181.939 19.858 182.428 20.0966C182.916 20.3295 183.32 20.6307 183.638 21C183.956 21.3693 184.197 21.7528 184.362 22.1506H184.447V15.5455H188.615V33H184.49V30.8778H184.362C184.186 31.2812 183.936 31.6591 183.612 32.0114C183.288 32.3636 182.882 32.6477 182.393 32.8636C181.911 33.0795 181.339 33.1875 180.68 33.1875ZM182.129 29.9403C182.635 29.9403 183.067 29.7983 183.425 29.5142C183.783 29.2244 184.058 28.8182 184.251 28.2955C184.445 27.7727 184.541 27.1591 184.541 26.4545C184.541 25.7386 184.445 25.1222 184.251 24.6051C184.064 24.0881 183.788 23.6903 183.425 23.4119C183.067 23.1335 182.635 22.9943 182.129 22.9943C181.612 22.9943 181.175 23.1364 180.817 23.4205C180.459 23.7045 180.186 24.1051 179.999 24.6222C179.817 25.1392 179.726 25.75 179.726 26.4545C179.726 27.1591 179.82 27.7727 180.007 28.2955C180.195 28.8182 180.464 29.2244 180.817 29.5142C181.175 29.7983 181.612 29.9403 182.129 29.9403Z" fill="white"/>
<g clip-path="url(#clip0_326_584)">
<mask id="mask0_326_584" style="mask-type:luminance" maskUnits="userSpaceOnUse" x="5" y="0" width="25" height="50">
<path d="M5.00293 0.240112H29.1508V50H5.00293V0.240112Z" fill="white"/>
</mask>
<g mask="url(#mask0_326_584)">
<path d="M11.5123 22.2968C11.5092 22.1395 11.5076 21.9817 11.5076 21.8238V5.22853C17.3894 2.69103 22.2587 1.09624 26.5415 0.244677C19.2305 0.160302 11.9066 1.51499 5.00293 4.30874V21.8238C5.00293 34.7931 13.4883 46.2358 25.8988 50.0025C27.016 49.6634 28.1008 49.2613 29.1508 48.802C18.6764 44.2244 11.6977 33.9067 11.5123 22.2968Z" fill="white"/>
</g>
<path d="M46.7944 6.74485C41.6079 4.91672 38.4371 4.18495 32.4033 4.59537C29.0496 4.82349 25.5501 5.84849 22.8418 6.84068C23.8569 6.77818 24.8757 6.74485 25.8986 6.74485C30.8095 6.74485 35.6329 7.46672 40.2897 8.89433V21.8235C40.2897 26.7813 38.7288 31.5068 35.7757 35.4896C33.9564 37.9428 31.7137 39.9719 29.1507 41.5053C30.185 42.124 31.271 42.6631 32.4033 43.1157C36.3392 41.5412 39.7272 38.9329 42.2803 35.4896C45.1392 31.6339 46.6934 27.0818 46.7897 22.2964C46.7918 22.1391 46.7944 21.9813 46.7944 21.8235V6.74485Z" fill="white"/>
<mask id="mask1_326_584" style="mask-type:luminance" maskUnits="userSpaceOnUse" x="16" y="10" width="20" height="23">
<path d="M16.6387 11.1209H16.4387V11.3209V32V32.2H16.6387H34.9999H35.1999V32V11.3209V11.1209H34.9999H16.6387Z" fill="white" stroke="white" stroke-width="0.4"/>
</mask>
<g mask="url(#mask1_326_584)">
<path d="M16.4101 31.9274L16.2545 32.2786H16.6387H18.2974H18.4602L18.526 32.1296L25.8049 15.6569L32.2661 30.2961H25.6843H25.4343V30.5461V32.0286V32.2786H25.6843H34.9411H35.3248L35.1699 31.9276L26.0338 11.2311L25.8055 10.7138L25.5765 11.2308L16.4101 31.9274Z" fill="white" stroke="white" stroke-width="0.5"/>
</g>
</g>
<defs>
<clipPath id="clip0_326_584">
<rect width="50" height="50" fill="white"/>
</clipPath>
</defs>
</svg>
